<svg width="25" height="25" viewBox="0 0 20 20" fill="none" xmlns="http://www.w3.org/2000/svg">
<path d="M15.9927 18.0055C17.8448 16.6191 19.1589 14.6333 19.711 12.3866C20.2632 10.1399 20.0192 7.77128 19.0208 5.68428C18.0223 3.59727 16.3311 1.92103 14.2353 0.941176C12.1395 -0.0386814 9.76876 -0.261533 7.52707 0.310593C5.28537 0.882718 3.31141 2.21442 1.9415 4.0788C0.571603 5.94317 -0.109472 8.22487 0.0143271 10.5351C0.138126 12.8453 1.05914 15.0412 2.62044 16.7485C4.18173 18.4558 6.28671 19.5689 8.57671 19.8982L9.15262 15.8931C7.78923 15.697 6.53599 15.0343 5.60644 14.0178C4.67689 13.0014 4.12855 11.694 4.05485 10.3186C3.98114 8.94314 4.38663 7.58469 5.20223 6.4747C6.01782 5.36471 7.19306 4.57186 8.5277 4.23123C9.86233 3.89061 11.2738 4.02329 12.5216 4.60666C13.7693 5.19004 14.7762 6.18802 15.3707 7.43055C15.9651 8.67309 16.1104 10.0833 15.7816 11.4209C15.4529 12.7585 14.6705 13.9408 13.5678 14.7662L15.9927 18.0055Z" fill="url(#paint0_angular_701_3)"/>
<defs>
<radialGradient id="paint0_angular_701_3" cx="0" cy="0" r="1" gradientUnits="userSpaceOnUse" gradientTransform="translate(10 10) rotate(90) scale(10)">
<stop offset="0.833333" stop-color="#FAFF00"/>
<stop offset="0.895833" stop-color="white" stop-opacity="0"/>
</radialGradient>
</defs>
</svg>
